<?xml version="1.0" encoding="UTF-8" standalone="no"?>
<svg
   width="79"
   height="79"
   viewBox="0 0 79 79"
   fill="none"
   version="1.1"
   id="svg13"
   sodipodi:docname="mastodon-logo-purple-add.svg"
   inkscape:export-filename="mastodon-logo-purple-add.png"
   inkscape:export-xdpi="155.5443"
   inkscape:export-ydpi="155.5443"
   inkscape:version="1.2.1 (9c6d41e4, 2022-07-14)"
   xmlns:inkscape="http://www.inkscape.org/namespaces/inkscape"
   xmlns:sodipodi="http://sodipodi.sourceforge.net/DTD/sodipodi-0.dtd"
   xmlns="http://www.w3.org/2000/svg"
   xmlns:svg="http://www.w3.org/2000/svg">
  <sodipodi:namedview
     id="namedview15"
     pagecolor="#ffffff"
     bordercolor="#000000"
     borderopacity="0.25"
     inkscape:showpageshadow="2"
     inkscape:pageopacity="0.0"
     inkscape:pagecheckerboard="0"
     inkscape:deskcolor="#d1d1d1"
     showgrid="false"
     inkscape:zoom="2.0147326"
     inkscape:cx="-88.597367"
     inkscape:cy="51.867926"
     inkscape:window-width="1440"
     inkscape:window-height="847"
     inkscape:window-x="0"
     inkscape:window-y="25"
     inkscape:window-maximized="0"
     inkscape:current-layer="svg13" />
  <g
     id="g177">
    <path
       d="M 76.3393,17.4898 C 75.1973,9.00165 67.7994,2.31235 59.0296,1.01614 57.55,0.797115 51.9441,0 38.9582,0 h -0.097 C 25.8717,0 23.085,0.797115 21.6054,1.01614 13.0798,2.27644 5.2939902,8.28712 3.4049972,16.8758 2.496415,21.1056 2.3994512,25.7949 2.5682396,30.0965 c 0.2406126,6.1686 0.2872986,12.3265 0.8475306,18.47 0.3873,4.0809 1.06295,8.1292 2.02186,12.1147 1.79562,7.3608 9.0642698,13.4864 16.1856698,15.9854 7.6245,2.6062 15.8241,3.0389 23.6806,1.2496 0.8643,-0.2011 1.7178,-0.4345 2.5606,-0.7002 1.9105,-0.6068 4.1478,-1.2855 5.7926,-2.4775 0.0226,-0.0168 0.0411,-0.0384 0.0541,-0.0632 0.0131,-0.0249 0.0204,-0.0524 0.0213,-0.0805 v -5.9532 c -4e-4,-0.0262 -0.0066,-0.052 -0.0183,-0.0755 -0.0117,-0.0235 -0.0284,-0.0441 -0.0491,-0.0603 -0.0207,-0.0162 -0.0447,-0.0275 -0.0703,-0.0332 -0.0256,-0.0057 -0.0522,-0.0056 -0.0777,3e-4 -5.0336,1.2021 -10.1917,1.8048 -15.3669,1.7953 -8.9063,0 -11.3016,-4.2262 -11.9876,-5.9856 -0.5513,-1.5206 -0.9014,-3.1067 -1.0414,-4.718 -0.0015,-0.0271 0.0035,-0.0541 0.0145,-0.0789 0.0109,-0.0248 0.0276,-0.0466 0.0486,-0.0637 0.021,-0.0172 0.0457,-0.0291 0.0722,-0.0349 0.0265,-0.0058 0.0539,-0.0053 0.0802,0.0015 4.9497,1.194 10.0237,1.7967 15.1155,1.7953 1.2246,0 2.4456,0 3.6702,-0.0323 5.1211,-0.1436 10.5187,-0.4057 15.5572,-1.3895 0.1257,-0.0252 0.2514,-0.0467 0.3591,-0.079 7.9474,-1.5261 15.5106,-6.3159 16.2791,-18.445 0.0287,-0.4775 0.1006,-5.0017 0.1006,-5.4972 0.0035,-1.684 0.5422,-11.946 -0.0791,-18.2511 z"
       fill="url(#paint0_linear_549_34)"
       id="path2"
       style="fill:url(#paint0_linear_549_34)" />
    <path
       d="M 63.7484,27.0263 V 48.114 H 55.3916 V 27.6475 c 0,-4.3087 -1.7956,-6.5062 -5.4479,-6.5062 -4.015,0 -6.026,2.5996 -6.026,7.7342 V 40.0782 H 35.6111 V 28.8755 c 0,-5.1346 -2.0146,-7.7342 -6.0296,-7.7342 -3.6308,0 -5.4444,2.1975 -5.4444,6.5062 V 48.114 H 15.7839 V 27.0263 c 0,-4.3087 1.1001,-7.7317 3.3004,-10.2691 2.2696,-2.5314 5.2468,-3.8312 8.9421,-3.8312 4.2772,0 7.5093,1.6445 9.6641,4.9299 l 2.0793,3.4901 2.0829,-3.4901 c 2.1547,-3.2854 5.3868,-4.9299 9.6568,-4.9299 3.6918,0 6.6689,1.2998 8.9458,3.8312 2.1978,2.535 3.2955,5.958 3.2931,10.2691 z"
       fill="#ffffff"
       id="path4" />
  </g>
  <defs
     id="defs11">
    <linearGradient
       id="paint0_linear_549_34"
       x1="37.0692"
       y1="0"
       x2="37.0692"
       y2="79"
       gradientUnits="userSpaceOnUse"
       gradientTransform="translate(2.5000002)">
      <stop
         stop-color="#6364FF"
         id="stop6" />
      <stop
         offset="1"
         stop-color="#563ACC"
         id="stop8" />
    </linearGradient>
  </defs>
  <g
     id="g1036"
     transform="translate(1.9529432,-0.54945575)"
     style="fill:#9f9efd;fill-opacity:1;fill-rule:nonzero">
    <rect
       style="fill:#9f9efd;fill-opacity:1;fill-rule:nonzero;stroke-width:1.363"
       id="rect283"
       width="8.4171257"
       height="25.078211"
       x="59.5755"
       y="53.822483" />
    <rect
       style="fill:#9f9efd;fill-opacity:1;fill-rule:nonzero;stroke-width:1.363"
       id="rect283-7"
       width="8.4171257"
       height="25.078211"
       x="62.204891"
       y="-76.376175"
       transform="rotate(90)" />
  </g>
</svg>
